<svg preserveAspectRatio="none" width="100%" height="100%" overflow="visible" style="display: block;" viewBox="0 0 16 16" fill="none" xmlns="http://www.w3.org/2000/svg">
<g id="Group">
<g id="Vector">
</g>
<path id="Vector_2" d="M8.32333 2.08066L13.4953 3.37399C13.792 3.44733 14 3.71399 14 4.02066V4.66666H14.6667C15.4 4.66666 16 5.26666 16 5.99999V7.99999C16 9.10466 15.1047 9.99999 14 9.99999H13.7193C13.3627 10.9 12.6847 11.6573 11.7887 12.1053L8.596 13.702C8.22067 13.8893 7.77933 13.8893 7.404 13.702L4.21067 12.1053C3.316 11.6573 2.638 10.9 2.28133 9.99999H2C0.895333 9.99999 0 9.10466 0 7.99999V5.99999C0 5.26333 0.596667 4.66666 1.33333 4.66666H2V4.01999C2 3.71466 2.208 3.44799 2.50467 3.37333L7.67667 2.08066C7.88867 2.02733 8.11133 2.02733 8.32333 2.08066V2.08066ZM8 3.37399L3.33333 4.54066V8.52733C3.33333 9.53799 3.904 10.4607 4.80733 10.9133L8 12.5093L11.1927 10.9133C12.096 10.4613 12.6667 9.53799 12.6667 8.52799V4.54133L8 3.37466V3.37399ZM2 5.99999H1.33333V7.99999C1.33333 8.36799 1.632 8.66666 2 8.66666V5.99999ZM14.6667 5.99999H14V8.66666C14.368 8.66666 14.6667 8.36799 14.6667 7.99999V5.99999Z" fill="var(--fill-0, #FE755D)"/>
</g>
</svg>
