<svg preserveAspectRatio="none" width="100%" height="100%" overflow="visible" style="display: block;" viewBox="0 0 32 32" fill="none" xmlns="http://www.w3.org/2000/svg">
<path id="Vector" d="M30.5957 26.7081C30.4164 27.0698 30.7327 28.1102 30.8475 28.4958C30.8557 28.5185 30.8616 28.5415 30.8616 28.5641C30.8648 28.6121 30.917 29.7067 30.5645 30.419C30.5534 30.6015 30.498 31.0535 30.2108 31.3542C30.0637 31.5052 29.8794 31.5932 29.6658 31.6105C29.5146 31.7669 29.2234 31.918 28.8285 31.8864C28.6915 31.9559 28.4255 32.0494 28.0396 31.9461C27.8985 31.9777 27.6024 32.0102 27.2005 31.8625C27.0776 31.8864 26.8539 31.8951 26.6706 31.7342C26.4803 31.5703 26.3956 31.2857 26.4127 30.8894C26.3563 30.8548 26.3018 30.8091 26.2514 30.7483C26.0378 30.4854 25.9794 30.0347 26.0823 29.4145C26.0892 29.383 26.0985 29.3525 26.1126 29.3255C26.1437 29.2668 26.8652 27.957 27.7486 27.3552C27.8191 26.7038 27.8977 25.687 27.8292 25.3765C27.5944 24.26 27.3557 22.6829 27.8613 21.4689C27.3506 21.2702 26.2777 20.8205 25.8123 20.3741C25.3176 19.895 24.9641 19.5314 24.6416 19.1144C24.4915 20.0506 23.7601 21.4407 21.5106 23.3521C21.571 24.1473 21.7947 27.843 21.0139 29.9739L20.5485 29.7771C21.3655 27.5453 21.005 23.2979 21.0009 23.2544C20.9918 23.162 21.028 23.073 21.0976 23.0154C24.3777 20.2667 24.2881 18.7972 24.0956 18.2912C24.0472 18.1641 24.0976 18.013 24.2115 17.9492C24.3233 17.8839 24.4662 17.9253 24.5359 18.0403C24.9993 18.8126 25.4081 19.2601 26.1437 19.9682C26.588 20.395 27.8462 20.901 28.2956 21.0585C28.3671 21.0836 28.4255 21.1434 28.4508 21.2215C28.4769 21.2996 28.4719 21.3833 28.4306 21.455C27.8361 22.529 28.0812 24.1387 28.3158 25.2552C28.4306 25.7883 28.2512 27.3739 28.2292 27.5544C28.2191 27.6411 28.1708 27.7162 28.1023 27.7565C27.367 28.1974 26.6991 29.327 26.568 29.556C26.4774 30.1501 26.5892 30.3434 26.6266 30.3868C26.6286 30.3868 26.6325 30.3868 26.6347 30.3868C26.7072 30.3868 26.7978 30.4378 26.8461 30.4943C26.8966 30.5542 26.9408 30.6552 26.9308 30.7333C26.8845 31.0873 26.9328 31.2666 26.9873 31.3133C27.0255 31.3481 27.1161 31.3308 27.1314 31.3251C27.1898 31.3046 27.2452 31.3046 27.3056 31.3274C27.7035 31.4913 27.9594 31.4153 27.9675 31.4111C28.0118 31.3938 28.0683 31.3959 28.1136 31.4068C28.4561 31.5154 28.6354 31.3906 28.6425 31.3852C28.6918 31.3524 28.7583 31.3319 28.8187 31.3406C29.2014 31.3961 29.3405 31.2006 29.3447 31.1919C29.393 31.1221 29.4735 31.0745 29.5543 31.0745C29.5602 31.0745 29.5755 31.0768 29.5846 31.0745C29.7023 31.0745 29.7942 31.0387 29.8637 30.9627C30.0288 30.7964 30.067 30.4565 30.067 30.3393C30.067 30.2913 30.0791 30.246 30.1012 30.2057C30.3491 29.7518 30.3752 28.9449 30.3653 28.6276C30.1274 27.8425 29.9019 26.968 30.1538 26.4534C30.6967 25.349 31.4241 21.9659 31.4312 21.9312C31.7638 19.5474 30.7441 17.9574 30.0693 16.9038C29.0881 15.3747 27.2233 14.4271 27.2043 14.4195C27.1337 14.3847 27.0804 14.3082 27.0632 14.2261C26.6129 11.6881 24.5629 11.031 23.4818 11.031C23.4064 11.031 23.3358 11.0342 23.2704 11.0342C21.0027 11.0342 18.441 9.59291 18.3311 9.52942C18.2485 9.48162 18.1963 9.3903 18.1963 9.2906C18.1963 7.50292 18.4934 6.54014 18.5045 6.50001C19.1049 5.44823 19.0918 4.98112 19.0342 4.7917C18.992 4.65044 18.9073 4.60924 18.8972 4.6071C18.7904 4.56144 18.7149 4.43605 18.7321 4.31067C19.1633 1.20225 17.067 0.635964 16.9763 0.614739C16.9741 0.614739 16.4171 0.503444 16.0303 0.543753C16.0121 0.543753 15.9798 0.543753 15.9668 0.543753C15.5689 0.505763 15.0118 0.617058 15.0077 0.617058C14.9281 0.639352 12.8336 1.20243 13.2629 4.31067C13.2831 4.4414 13.2075 4.56964 13.0897 4.60924C13.0877 4.60924 13.003 4.65044 12.9608 4.7917C12.9014 4.98343 12.8884 5.45037 13.4624 6.44365C13.4997 6.54032 13.796 7.50095 13.796 9.29077C13.796 9.39065 13.7435 9.4818 13.661 9.5296C13.5521 9.59309 10.9894 11.0344 8.72365 11.0344C8.65416 11.0344 8.58567 11.0278 8.51221 11.0312C7.42922 11.0312 5.38319 11.6883 4.92888 14.2263C4.91482 14.3083 4.86535 14.3784 4.79586 14.4153C4.77568 14.4262 2.97334 15.4108 2.00335 16.9149L1.90358 17.0736C1.19946 18.1628 0.240383 19.6496 0.562832 21.9565C0.566802 21.9706 1.29426 25.3537 1.83509 26.4581C2.08905 26.9696 1.86239 27.8448 1.62547 28.6314C1.61952 28.8136 1.60943 29.6999 1.88952 30.2105C1.91169 30.2508 1.92377 30.2974 1.92575 30.3452C1.92575 30.4604 1.96199 30.798 2.12726 30.9675C2.19873 31.0413 2.2894 31.0793 2.40736 31.0793C2.42043 31.0793 2.42854 31.0793 2.43846 31.0793C2.52515 31.0793 2.60572 31.125 2.65006 31.2042C2.65205 31.2065 2.78507 31.4009 3.16989 31.3454C3.23143 31.3356 3.29877 31.3552 3.35022 31.3932C3.35518 31.3932 3.53767 31.5204 3.87815 31.4128C3.92844 31.3964 3.98089 31.3986 4.02721 31.418C4.03333 31.418 4.28712 31.4942 4.68303 31.3324C4.74342 31.3096 4.80298 31.3096 4.85923 31.3303C4.87643 31.3356 4.96296 31.3542 5.00531 31.3192C5.05776 31.2703 5.10408 31.0913 5.05776 30.7394C5.04767 30.66 5.07281 30.5787 5.12228 30.5209C5.17274 30.4568 5.24521 30.4048 5.31883 30.4353C5.30874 30.4319 5.341 30.4276 5.37111 30.3841C5.41644 30.3202 5.50611 30.1181 5.42256 29.5642C5.29269 29.3339 4.61867 28.2033 3.88626 27.7635C3.81875 27.7232 3.77045 27.6482 3.76035 27.5614C3.73818 27.3821 3.55884 25.7965 3.67068 25.2622C3.90644 24.1467 4.15328 22.5404 3.55686 21.4621C3.51864 21.3923 3.51252 21.3057 3.53767 21.2284C3.56182 21.1535 3.62221 21.0927 3.69285 21.0667C4.1422 20.907 5.3994 20.401 5.84361 19.9764C6.58199 19.2692 6.98699 18.8229 7.45139 18.053C7.52187 17.9335 7.65886 17.8901 7.77682 17.9597C7.88965 18.0226 7.93995 18.1682 7.89164 18.3007C7.7022 18.8056 7.61452 20.2773 10.8906 23.0249C10.9581 23.0812 10.9965 23.1704 10.9884 23.2628C10.9844 23.3061 10.6248 27.558 11.4407 29.7844L10.9743 29.9821C10.1946 27.8512 10.4171 24.1553 10.4767 23.3603C8.22616 21.451 7.49474 20.0588 7.34766 19.1236C7.0262 19.5408 6.67364 19.9056 6.17698 20.3825C5.70944 20.8311 4.63571 21.2805 4.12797 21.4783C4.63373 22.6947 4.39483 24.2716 4.15824 25.3836C4.09471 25.6931 4.17131 26.7119 4.2408 27.3645C5.12427 27.9629 5.84659 29.2738 5.87687 29.3335C5.89407 29.3607 5.90202 29.3912 5.90714 29.4249C6.0079 30.045 5.95148 30.4934 5.73806 30.7552C5.68661 30.8171 5.63118 30.8628 5.57477 30.8986C5.59396 31.2917 5.50925 31.5775 5.31899 31.7435C5.13353 31.9064 4.91101 31.8966 4.7861 31.8694C4.38705 32.0184 4.08992 31.9857 3.94797 31.9543C3.82719 31.9859 3.71419 32 3.61758 32C3.40697 32 3.2498 31.9424 3.15913 31.8946C2.75115 31.9315 2.47618 31.7762 2.32397 31.6187C2.11138 31.5992 1.92493 31.5111 1.77901 31.3613C1.49494 31.0627 1.43852 30.612 1.42645 30.4274C1.0719 29.7151 1.12534 28.6201 1.12832 28.5725C1.12832 28.5486 1.13328 28.5268 1.14039 28.5029C1.26927 28.0759 1.57154 27.077 1.3922 26.7174C0.820096 25.5499 0.100749 22.2037 0.0704728 22.0626C-0.285065 19.5246 0.784691 17.8682 1.49097 16.7702L1.59371 16.6161C2.5053 15.1971 4.03565 14.2436 4.46084 13.9992C5.02086 11.2222 7.30167 10.4972 8.51569 10.4972C8.58319 10.4972 8.65267 10.4993 8.72018 10.4993C10.5849 10.4993 12.7398 9.42365 13.2939 9.13257C13.2737 7.54751 13.0138 6.68782 13.0128 6.67926C12.506 5.81476 12.3217 5.09295 12.4949 4.59408C12.5595 4.4118 12.6561 4.29283 12.7447 4.21846C12.3528 0.758317 14.8805 0.102317 14.9066 0.0946479C14.9428 0.0876919 15.5533 -0.0366235 16.0078 0.0122465C16.4439 -0.0387638 17.0524 0.0855516 17.0785 0.0937561C17.1149 0.102496 19.6446 0.758496 19.2506 4.21864C19.3391 4.29194 19.4391 4.41198 19.4985 4.59337C19.6717 5.09134 19.4904 5.81298 18.9595 6.73402C18.9654 6.73402 18.7197 7.59031 18.7015 9.13311C19.2546 9.42526 21.4113 10.4999 23.2752 10.4999C23.3427 10.4999 23.4082 10.4977 23.4817 10.4977C24.6936 10.4977 26.9744 11.2206 27.5324 13.9964C27.9758 14.2354 29.5573 15.1586 30.468 16.5774C31.2044 17.7264 32.2934 19.4251 31.9266 22.0403C31.8874 22.1967 31.17 25.5429 30.5957 26.7081ZM24.1433 16.8023C24.1433 16.652 24.0315 16.5309 23.8915 16.5309C23.7525 16.5309 23.6417 16.652 23.6417 16.8023C23.6417 18.463 22.1689 19.8151 20.3594 19.8151C18.5521 19.8151 17.0804 18.463 17.0804 16.8023V15.1054C17.0804 14.954 16.9685 14.835 16.8295 14.835C16.6904 14.835 16.5777 14.954 16.5777 15.1054V16.8002C16.5777 18.7616 18.2762 20.3548 20.3594 20.3548C22.4439 20.3548 24.1433 18.7603 24.1433 16.8023ZM8.35819 16.8023C8.35819 16.652 8.24734 16.5309 8.10837 16.5309C7.9684 16.5309 7.85656 16.652 7.85656 16.8023C7.85656 18.7626 9.555 20.3559 11.6383 20.3559C13.7235 20.3559 15.4201 18.7605 15.4201 16.8023V15.1054C15.4201 14.954 15.3103 14.835 15.1713 14.835C15.0313 14.835 14.9205 14.954 14.9205 15.1054V16.8002C14.9205 18.4609 13.4476 19.815 11.6383 19.815C9.83113 19.8151 8.35819 18.4628 8.35819 16.8023ZM21.1231 18.3021C21.1231 17.9752 20.8834 17.7093 20.5831 17.7093C20.2891 17.7093 20.0472 17.9752 20.0472 18.3021C20.0472 18.6312 20.287 18.8928 20.5831 18.8928C20.8804 18.893 21.1231 18.6312 21.1231 18.3021ZM11.9506 18.3021C11.9506 17.9752 11.7119 17.7093 11.4128 17.7093C11.1135 17.7093 10.8757 17.9752 10.8757 18.3021C10.8757 18.6312 11.1145 18.8928 11.4128 18.8928C11.7111 18.8928 11.9506 18.6312 11.9506 18.3021ZM15.9924 21.0098C13.9927 21.0098 12.3657 22.7627 12.3657 24.9196V29.594C12.3657 29.7416 12.4776 29.8622 12.6155 29.8622C12.7545 29.8622 12.8673 29.7416 12.8673 29.594V24.9196C12.8673 23.0623 14.2667 21.5539 15.9902 21.5539C17.713 21.5539 19.1132 23.0623 19.1132 24.9196V29.7677C19.1132 29.9177 19.225 30.0382 19.365 30.0382C19.5019 30.0382 19.6148 29.9177 19.6148 29.7677V24.9196C19.6181 22.7627 17.9921 21.0098 15.9924 21.0098ZM17.0914 24.6882C17.0934 24.6882 17.0954 24.6882 17.0974 24.6882C17.8086 24.6882 18.3184 24.1441 18.3385 24.1212C18.4353 24.0135 18.4353 23.8453 18.3366 23.7379C18.2366 23.6304 18.0785 23.6359 17.9819 23.7401C17.9787 23.7444 17.5949 24.1462 17.0972 24.1462C17.0952 24.1462 17.0952 24.1462 17.0933 24.1462C16.7993 24.1441 16.514 23.99 16.2421 23.7098V22.9277C16.2421 22.7778 16.1322 22.6562 15.9932 22.6562C15.8533 22.6562 15.7424 22.778 15.7424 22.9277V23.7117C15.4703 23.9876 15.1893 24.1417 14.8972 24.1462C14.8952 24.1462 14.8932 24.1462 14.8892 24.1462C14.3894 24.1462 14.0067 23.7433 14.0048 23.7379C13.906 23.6359 13.7488 23.6347 13.6501 23.7401C13.5513 23.8455 13.5503 24.0137 13.6481 24.1214C13.6702 24.1442 14.176 24.6884 14.8892 24.6884C14.8912 24.6884 14.8932 24.6884 14.8953 24.6884C15.1935 24.6861 15.4736 24.5602 15.7426 24.3756V25.3628C15.4704 25.6398 15.1895 25.7949 14.8973 25.7994C14.8953 25.7994 14.8914 25.7994 14.8872 25.7994C14.3896 25.7994 14.0058 25.3984 14.0048 25.3933C13.906 25.2911 13.7488 25.2889 13.6501 25.3954C13.5513 25.4985 13.5503 25.669 13.6481 25.7755C13.6702 25.7996 14.176 26.3391 14.8872 26.3391C14.8912 26.3391 14.8934 26.3391 14.8953 26.3391C15.1935 26.338 15.4736 26.2132 15.7426 26.0286V27.2362C15.4704 27.512 15.1895 27.6695 14.8973 27.6707C14.8953 27.6707 14.8914 27.6707 14.8872 27.6707C14.3896 27.6707 14.0058 27.2721 14.0048 27.2646C13.906 27.1626 13.7488 27.1613 13.6501 27.2667C13.5513 27.3721 13.5503 27.5403 13.6481 27.6481C13.6702 27.6709 14.176 28.2151 14.8872 28.2151C14.8912 28.2151 14.8934 28.2151 14.8953 28.2151C15.1935 28.2127 15.4736 28.0847 15.7426 27.8999V28.3376C15.7426 28.4876 15.8533 28.6071 15.9934 28.6071C16.1325 28.6071 16.2432 28.4876 16.2432 28.3376V27.8978C16.5152 28.0845 16.7933 28.2128 17.0914 28.2149C17.0934 28.2149 17.0974 28.2149 17.0995 28.2149C17.8108 28.2149 18.3184 27.6718 18.3385 27.6479C18.4363 27.5402 18.4353 27.372 18.3366 27.2646C18.2366 27.1592 18.0785 27.1613 17.9819 27.2667C17.9787 27.2721 17.5949 27.6709 17.0994 27.6709C17.0972 27.6709 17.0954 27.6709 17.0933 27.6709C16.7993 27.6709 16.514 27.5145 16.243 27.2343V26.0266C16.515 26.2112 16.7931 26.3384 17.0913 26.3405C17.0933 26.3405 17.0972 26.3405 17.0994 26.3405C17.8096 26.3405 18.3182 25.801 18.3384 25.7758C18.4362 25.6694 18.4352 25.4989 18.3364 25.3958C18.2376 25.2893 18.0805 25.2914 17.9817 25.3936C17.9785 25.3988 17.5969 25.7997 17.0992 25.7997C17.0952 25.7997 17.0911 25.7997 17.0911 25.7997C16.7969 25.7953 16.5139 25.6399 16.2429 25.3619V24.3736C16.5122 24.5577 16.7913 24.6859 17.0914 24.6882ZM15.9944 29.5058C15.7375 29.5058 15.531 29.7274 15.531 30.0022C15.531 30.2803 15.7376 30.5018 15.9944 30.5018C16.2483 30.5018 16.4518 30.2803 16.4518 30.0022C16.4518 29.7306 16.2483 29.5058 15.9944 29.5058ZM6.90344 15.2406C3.3977 15.5565 3.05821 18.8994 3.05722 18.9321C3.04316 19.0819 3.1449 19.2121 3.28189 19.2285C3.28983 19.2285 3.29794 19.2285 3.30505 19.2285C3.43195 19.2285 3.5418 19.1231 3.55487 18.9865C3.56695 18.8657 3.86309 16.0562 6.9458 15.7782C7.08278 15.7646 7.18552 15.6366 7.17659 15.4855C7.16352 15.3442 7.05582 15.2363 6.92677 15.2363C6.91966 15.2395 6.91155 15.2406 6.90344 15.2406ZM28.437 19.0721C28.4471 19.2132 28.5558 19.3239 28.6859 19.3239C28.6928 19.3239 28.6968 19.3218 28.7049 19.3218C28.844 19.3109 28.9446 19.1818 28.9377 19.033C28.6817 15.2486 25.581 14.8561 25.5496 14.8518C25.4237 14.8604 25.2908 14.9451 25.2746 15.0929C25.2574 15.2406 25.3603 15.3753 25.4973 15.391C25.605 15.4018 28.2092 15.7455 28.437 19.0721Z" fill="var(--fill-0, #A21A01)"/>
</svg>
