<svg preserveAspectRatio="none" width="100%" height="100%" overflow="visible" style="display: block;" viewBox="0 0 16 16" fill="none" xmlns="http://www.w3.org/2000/svg">
<g id="Group">
<g id="Vector">
</g>
<path id="Vector_2" d="M12.2427 7.31999C13.284 8.36065 13.284 10.0493 12.2427 11.0907L8.47132 14.862C8.21132 15.122 7.78865 15.122 7.52865 14.862L3.75732 11.0907C2.71599 10.0493 2.71599 8.36066 3.75732 7.31932C4.79865 6.27799 6.48732 6.27799 7.52865 7.31932L7.99932 7.79066L8.47132 7.31932C9.51265 6.27799 11.2013 6.27799 12.2427 7.31932V7.31999ZM4.69999 8.26132C4.17999 8.78199 4.17999 9.62666 4.69999 10.1473L7.99999 13.4473L11.3 10.1473C11.82 9.62666 11.82 8.78199 11.3 8.26132C10.7793 7.74132 9.93465 7.74132 9.41332 8.26266L7.99865 9.67466L6.58532 8.26132C6.06532 7.74132 5.22065 7.74132 4.69999 8.26132V8.26132ZM7.99999 0.666655C9.47332 0.666655 10.6667 1.85999 10.6667 3.33332C10.6667 4.80666 9.47332 5.99999 7.99999 5.99999C6.52665 5.99999 5.33332 4.80666 5.33332 3.33332C5.33332 1.85999 6.52665 0.666655 7.99999 0.666655ZM7.99999 1.99999C7.26332 1.99999 6.66665 2.59666 6.66665 3.33332C6.66665 4.06999 7.26332 4.66666 7.99999 4.66666C8.73665 4.66666 9.33332 4.06999 9.33332 3.33332C9.33332 2.59666 8.73665 1.99999 7.99999 1.99999Z" fill="var(--fill-0, #FE755D)"/>
</g>
</svg>
