<svg preserveAspectRatio="none" width="100%" height="100%" overflow="visible" style="display: block;" viewBox="0 0 16 16" fill="none" xmlns="http://www.w3.org/2000/svg">
<g id="Group">
<g id="Vector">
</g>
<path id="Vector_2" d="M5.33336 2V3.33333H4.00002V6C4.00002 7.47333 5.19336 8.66667 6.66669 8.66667C8.14002 8.66667 9.33336 7.47333 9.33336 6V3.33333H8.00002V2H10C10.368 2 10.6667 2.29867 10.6667 2.66667V6C10.6667 7.982 9.22536 9.62667 7.33336 9.94467V11C7.33336 12.2887 8.37802 13.3333 9.66669 13.3333C10.6647 13.3333 11.5167 12.7067 11.85 11.8247C11.152 11.5133 10.6667 10.8133 10.6667 10C10.6667 8.89533 11.562 8 12.6667 8C13.7714 8 14.6667 8.89533 14.6667 10C14.6667 10.914 14.0534 11.6847 13.216 11.9233C12.8067 13.5013 11.3727 14.6667 9.66669 14.6667C7.64136 14.6667 6.00002 13.0253 6.00002 11V9.94467C4.10802 9.62733 2.66669 7.982 2.66669 6V2.66667C2.66669 2.29867 2.96536 2 3.33336 2H5.33336ZM12.6667 9.33333C12.2987 9.33333 12 9.632 12 10C12 10.368 12.2987 10.6667 12.6667 10.6667C13.0347 10.6667 13.3334 10.368 13.3334 10C13.3334 9.632 13.0347 9.33333 12.6667 9.33333Z" fill="var(--fill-0, #FE755D)"/>
</g>
</svg>
