<svg preserveAspectRatio="none" width="100%" height="100%" overflow="visible" style="display: block;" viewBox="0 0 16 16" fill="none" xmlns="http://www.w3.org/2000/svg">
<g id="Group">
<g id="Vector">
</g>
<path id="Vector_2" d="M14 1.33335V7.33335H11.9993L12 8.00001C12 9.47335 10.8067 10.6667 9.33333 10.6667H8.414L8.00533 12.7407L8.61267 13.6213C8.822 13.9247 8.746 14.34 8.44267 14.5487C8.33133 14.6253 8.19933 14.6667 8.064 14.6667H2L3.542 7.98401L2 7.33335L4.66667 1.33335H14ZM12.6667 2.66668H5.53333L3.77 6.63335L5.09333 7.19135L3.676 13.3333H6.79467L6.58867 13.0347L7.97333 6.00001H12.6667V2.66668ZM10.666 7.33335H9.07L8.676 9.33335H9.33333C10.07 9.33335 10.6667 8.73668 10.6667 8.00001L10.666 7.33335Z" fill="var(--fill-0, #FE755D)"/>
</g>
</svg>
