<svg preserveAspectRatio="none" width="100%" height="100%" overflow="visible" style="display: block;" viewBox="0 0 32 32" fill="none" xmlns="http://www.w3.org/2000/svg">
<g id="Vector">
<path d="M21.3296 19.5226C21.3296 19.2284 21.0956 18.9875 20.8056 18.9875C20.5168 18.9875 20.2863 19.2284 20.2863 19.5226C20.2863 19.8185 20.5178 20.0577 20.8056 20.0577C21.0956 20.0578 21.3296 19.8185 21.3296 19.5226ZM11.3905 19.5226C11.3905 19.8185 11.6231 20.0577 11.9121 20.0577C12.2003 20.0577 12.4329 19.8183 12.4329 19.5226C12.4329 19.2284 12.2003 18.9875 11.9121 18.9875C11.6231 18.9891 11.3905 19.2285 11.3905 19.5226ZM16.3516 21.8378C14.3421 21.8378 12.7086 23.4773 12.7086 25.4916V29.7097C12.7086 29.9133 12.8738 30.08 13.0786 30.08C13.2833 30.08 13.4482 29.9133 13.4482 29.7097V25.4916C13.4482 23.8878 14.7515 22.5798 16.3517 22.5798C17.9519 22.5798 19.2561 23.8861 19.2561 25.4916V29.8665C19.2561 30.0719 19.4197 30.2385 19.6245 30.2385C19.8293 30.2385 19.9945 30.0719 19.9945 29.8665V25.4916C19.996 23.4773 18.3612 21.8378 16.3516 21.8378ZM17.4173 26.8999C17.4197 26.8999 17.4221 26.8999 17.4246 26.8999C18.1678 26.8999 18.6959 26.3745 18.7176 26.3535C18.8611 26.2079 18.8611 25.972 18.716 25.8281C18.5725 25.6841 18.3371 25.6841 18.192 25.8312C18.1889 25.8344 17.8405 26.1756 17.4197 26.1578C17.1819 26.1578 16.9489 26.0462 16.7217 25.8425V25.2491C16.9443 25.3558 17.1756 25.4092 17.4157 25.4108C17.4182 25.4108 17.4197 25.4108 17.4222 25.4108C18.1662 25.4108 18.6942 24.8855 18.716 24.8628C18.8596 24.7172 18.8586 24.4828 18.7143 24.3373C18.5692 24.1934 18.3356 24.195 18.1903 24.3389C18.1871 24.3438 17.8534 24.668 17.4213 24.668H17.4181C17.1803 24.6664 16.9473 24.5565 16.72 24.3527V23.698C16.72 23.4926 16.5548 23.3269 16.3508 23.3269C16.1461 23.3269 15.9817 23.4926 15.9817 23.698V24.3559C15.7575 24.558 15.5245 24.6664 15.2893 24.668C14.8547 24.6874 14.5209 24.348 14.5108 24.3389C14.3682 24.1967 14.1344 24.195 13.9893 24.3389C13.8438 24.4828 13.843 24.7173 13.9865 24.8644C14.0092 24.8855 14.5371 25.4125 15.2804 25.4125H15.2861C15.527 25.4108 15.7576 25.3558 15.9818 25.2508V25.8441C15.7576 26.0462 15.5238 26.1546 15.2885 26.1578C15.2853 26.1578 15.282 26.1578 15.2788 26.1578C14.8516 26.1578 14.5166 25.836 14.5093 25.8303C14.3646 25.6856 14.1312 25.6856 13.9877 25.8303C13.8422 25.9742 13.8414 26.2087 13.9849 26.3542C14.0074 26.3759 14.5346 26.9022 15.278 26.9022C15.2805 26.9022 15.2845 26.9022 15.2845 26.9022C15.5254 26.9006 15.7576 26.8464 15.9794 26.7406V27.5312C15.7561 27.7348 15.5224 27.8432 15.287 27.8473C15.2845 27.8473 15.2813 27.8473 15.2773 27.8473C14.8517 27.8473 14.5185 27.5263 14.5087 27.5175C14.366 27.3736 14.1322 27.3719 13.9867 27.5166C13.8416 27.6614 13.8408 27.8957 13.9843 28.0412C14.0068 28.0638 14.5341 28.5894 15.2773 28.5894C15.2799 28.5894 15.2821 28.5894 15.2846 28.5894C15.5256 28.5894 15.7578 28.5327 15.9795 28.4275V28.5714C15.9795 28.7768 16.1448 28.9433 16.3496 28.9433C16.5544 28.9433 16.7188 28.7768 16.7188 28.5714V28.4245C16.9414 28.5311 17.1734 28.5861 17.4145 28.5876C17.4169 28.5876 17.4193 28.5876 17.4218 28.5876C18.165 28.5876 18.6924 28.0606 18.7133 28.0396C18.8576 27.894 18.8559 27.6613 18.7133 27.5174C18.5698 27.3717 18.336 27.3717 18.1909 27.514C18.1877 27.519 17.8507 27.8432 17.4211 27.8432C17.418 27.8432 17.4146 27.8432 17.4115 27.8432C17.1753 27.8416 16.9431 27.7316 16.7191 27.5279V26.7373C16.9456 26.845 17.177 26.8999 17.4173 26.8999ZM16.3531 29.6304C16.1049 29.6304 15.9049 29.8326 15.9049 30.0815C15.9049 30.3305 16.1057 30.5311 16.3531 30.5311C16.5998 30.5311 16.7997 30.3305 16.7997 30.0815C16.7997 29.8326 16.6006 29.6304 16.3531 29.6304ZM28.2962 20.2259C28.3092 20.42 28.4719 20.5704 28.6637 20.5704C28.6734 20.5704 28.6815 20.5704 28.6912 20.5704C28.8944 20.5542 29.0483 20.3771 29.033 20.1735C28.7759 16.6538 25.665 16.2884 25.6335 16.2852C25.4279 16.2634 25.2473 16.4113 25.2272 16.6143C25.207 16.8179 25.3537 17.0014 25.5568 17.0216C25.6601 17.0313 28.0826 17.3191 28.2962 20.2259ZM3.70586 11.8475C3.68495 11.6447 3.50026 11.4947 3.30048 11.5157C3.09726 11.5354 2.94978 11.7165 2.96871 11.9195C2.9711 11.951 3.31134 15.0734 6.8181 15.3658C6.82856 15.3676 6.83862 15.3676 6.84908 15.3676C7.03933 15.3676 7.20177 15.2211 7.21753 15.0276C7.23487 14.8235 7.08368 14.6444 6.8798 14.627C3.99977 14.3846 3.71553 11.9511 3.70586 11.8475Z" fill="var(--fill-0, #A21A01)"/>
<path d="M30.8857 28.6815C30.8953 28.7122 30.9009 28.743 30.9026 28.7746C30.9091 28.8853 30.9517 29.8318 30.6116 30.4915C30.5947 30.6886 30.5261 31.1059 30.2327 31.3888C30.0787 31.5384 29.8877 31.6282 29.6683 31.6531C29.4983 31.7979 29.217 31.9353 28.8251 31.9095C28.7204 31.9539 28.5625 32 28.3591 32C28.2625 32 28.1527 31.9879 28.0352 31.962C27.8787 31.9879 27.5885 32.0065 27.2184 31.8877C27.0371 31.9168 26.8131 31.8877 26.6309 31.7389C26.4286 31.574 26.3294 31.3071 26.3334 30.9451C26.2908 30.916 26.2487 30.8773 26.21 30.8336C25.973 30.5636 25.9102 30.1352 26.0174 29.5256C26.0247 29.4819 26.0408 29.4398 26.0633 29.4026C26.0933 29.3518 26.7784 28.1892 27.6393 27.6179C27.7085 27.0108 27.7698 26.1781 27.7142 25.9339C27.4909 24.9462 27.266 23.5638 27.6998 22.4563C27.1597 22.2559 26.2342 21.8776 25.7956 21.4863C25.3925 21.1249 25.0855 20.8347 24.8121 20.5275C24.5734 21.3843 23.8028 22.5783 21.8407 24.1361C21.9052 24.9817 22.0898 28.2088 21.3433 30.0995C21.2675 30.2902 21.0506 30.3848 20.8628 30.308C20.6733 30.2336 20.5798 30.0186 20.6549 29.8286C21.4352 27.8474 21.0902 24.0408 21.0862 24.0019C21.0749 23.8759 21.1274 23.7521 21.228 23.6745C24.4276 21.1799 24.2325 19.8953 24.0971 19.5599C24.0858 19.5324 24.0842 19.5033 24.0801 19.4741C23.5005 20.6641 22.1552 21.5014 20.5887 21.5014C18.4968 21.5014 16.7943 20.0059 16.7943 18.1686V16.6367C16.7943 16.4315 16.9587 16.2649 17.1635 16.2649C17.3682 16.2649 17.5343 16.4315 17.5343 16.6367V18.1662C17.5343 19.5961 18.9031 20.7602 20.5873 20.7602C22.2722 20.7602 23.6426 19.5961 23.6426 18.1662C23.6426 17.9616 23.8078 17.7967 24.0126 17.7967C24.2173 17.7967 24.3817 17.9616 24.3817 18.1662C24.3817 18.5106 24.306 18.8346 24.1948 19.1467C24.2173 19.1281 24.2383 19.1062 24.2648 19.0926C24.4357 19.0053 24.6429 19.0587 24.7462 19.2195C25.1911 19.9082 25.5645 20.2882 26.2826 20.9315C26.6954 21.3009 27.8964 21.7487 28.3246 21.8896C28.4319 21.9252 28.5156 22.0084 28.556 22.1134C28.5954 22.2186 28.585 22.3375 28.5269 22.4328C27.9747 23.364 28.2077 24.7818 28.4302 25.7672C28.5446 26.2612 28.3819 27.6201 28.348 27.8876C28.3336 28.0058 28.2642 28.1092 28.1593 28.1657C27.4943 28.5336 26.8783 29.4818 26.7293 29.7228C26.6534 30.2207 26.7598 30.3436 26.7614 30.3452C26.8631 30.3371 26.9485 30.3792 27.0226 30.46C27.0969 30.5425 27.1017 30.6492 27.0857 30.7574C27.0413 31.0792 27.1001 31.1696 27.1001 31.1696C27.1839 31.1405 27.2848 31.1245 27.3676 31.1543C27.7095 31.2852 27.9206 31.2295 27.9287 31.2263C27.9948 31.2085 28.0746 31.2053 28.1399 31.2238C28.3992 31.2987 28.5381 31.2257 28.551 31.219C28.6236 31.177 28.7268 31.1478 28.8066 31.1615C29.0879 31.202 29.1887 31.0888 29.1993 31.0758C29.2701 30.9658 29.3895 30.9093 29.5153 30.919C29.6409 30.9206 29.6845 30.8883 29.7184 30.8558C29.8475 30.7306 29.8739 30.4509 29.8739 30.3878C29.8739 30.3216 29.8909 30.2569 29.9248 30.1978C30.1473 29.8227 30.1731 29.1469 30.1635 28.8631C29.9265 28.1332 29.7087 27.3225 29.974 26.8188C30.4923 25.8359 31.1953 22.8003 31.2017 22.769C31.5144 20.6785 30.5424 19.267 29.899 18.3341C28.9671 16.9825 27.1887 16.1427 27.171 16.1346C27.063 16.0838 26.9848 15.9851 26.9645 15.8679C26.5332 13.6145 24.5493 13.0551 23.5529 13.0907C21.3004 13.1521 18.6692 11.7804 18.5572 11.7217C18.4371 11.6578 18.3614 11.5313 18.3614 11.3939C18.3614 9.76062 18.6532 8.87222 18.6661 8.83584C18.6758 8.80876 18.6871 8.78288 18.7032 8.75818C19.241 7.89169 19.2175 7.50975 19.1837 7.38562C19.1611 7.31048 19.1241 7.28778 19.1176 7.28446C18.9419 7.23083 18.854 7.06462 18.8806 6.88234C19.2836 4.17798 17.3586 3.70961 17.2755 3.6905C17.2755 3.6905 16.7564 3.59956 16.396 3.62824C16.3767 3.63076 16.333 3.63076 16.3121 3.62824C16.0059 3.60354 15.5616 3.6674 15.4157 3.69368C15.3504 3.71028 13.427 4.20055 13.8273 6.88314C13.8547 7.06541 13.7446 7.23919 13.5696 7.29296C13.5789 7.28765 13.5467 7.30783 13.5245 7.38628C13.489 7.51081 13.4648 7.89155 14.0029 8.75805C14.0187 8.78194 14.0303 8.80863 14.0396 8.83571C14.0517 8.87209 14.3448 9.76129 14.3448 11.3938C14.3448 11.5725 14.2178 11.7263 14.0421 11.7589C14.0041 11.7652 10.2257 12.4739 8.50873 13.6666C8.3394 13.7834 8.1101 13.7413 7.9936 13.5732C7.95971 13.5242 7.94329 13.4706 7.93521 13.4159C7.42247 12.6246 6.10491 11.4201 5.71185 11.0692C5.29905 10.6989 4.09827 10.252 3.67078 10.1104C3.56394 10.0749 3.47934 9.99401 3.43936 9.88767C3.39978 9.78173 3.41077 9.66411 3.46836 9.56759C4.02228 8.63273 3.78887 7.21649 3.56513 6.23304C3.45353 5.73826 3.61504 4.38069 3.64894 4.11306C3.6639 3.99584 3.73314 3.89242 3.83799 3.83494C4.43573 3.50238 5.04076 2.64903 5.26807 2.27891C5.34473 1.77895 5.23498 1.65641 5.23498 1.65641C5.1145 1.66451 5.04751 1.62163 4.97377 1.54038C4.89963 1.45834 4.89473 1.3524 4.91049 1.24328C4.95484 0.922008 4.89645 0.829345 4.89645 0.829345C4.81384 0.859215 4.71309 0.87581 4.62955 0.844346C4.28904 0.714246 4.07987 0.7708 4.07007 0.773189C4.00388 0.791377 3.92457 0.794696 3.85878 0.774915C3.59121 0.699377 3.45009 0.778101 3.44452 0.781287C3.37158 0.822973 3.27083 0.850055 3.18941 0.836646C2.91126 0.796952 2.81289 0.909795 2.80283 0.921876C2.73266 1.03379 2.62384 1.09525 2.48602 1.08025C2.36951 1.08185 2.31669 1.11225 2.28372 1.14291C2.16073 1.26213 2.12936 1.52764 2.12856 1.61128C2.12856 1.67672 2.11042 1.74217 2.07733 1.79846C1.8561 2.1727 1.82989 2.84976 1.83876 3.13465C2.07494 3.86534 2.29458 4.67661 2.02781 5.17909C1.50937 6.16002 0.806907 9.19628 0.80042 9.22694C0.499912 11.2283 1.41538 12.5484 2.0836 13.5119L2.08461 13.5134L2.18218 13.6541C3.106 14.9907 4.8239 15.8601 4.84125 15.8674C4.94438 15.9184 5.01693 16.0169 5.03917 16.1285C5.46918 18.3749 7.43743 18.9238 8.44108 18.906C8.37819 18.6668 8.33874 18.4195 8.33874 18.1639C8.33874 17.9587 8.50397 17.7946 8.70877 17.7946C8.91305 17.7946 9.07841 17.9587 9.07841 18.1639C9.07841 19.594 10.4489 20.758 12.1329 20.758C13.8179 20.758 15.187 19.594 15.187 18.1639V16.636C15.187 16.4308 15.3523 16.2642 15.5571 16.2642C15.7618 16.2642 15.9271 16.4308 15.9271 16.636V18.1655C15.9271 20.0046 14.2246 21.5007 12.1313 21.5007C10.6057 21.5007 9.29566 20.7006 8.69395 19.5575C8.66336 19.5832 8.63106 19.6059 8.5932 19.6205C8.46941 20.0345 8.45617 21.3117 11.4841 23.6737C11.584 23.7514 11.6377 23.8742 11.6251 24.0011L11.6247 24.005C11.6123 24.1484 11.2887 27.8749 12.0568 29.8278C12.1313 30.017 12.0387 30.2329 11.848 30.3096C11.8037 30.3258 11.7573 30.3347 11.7118 30.3347C11.5643 30.3347 11.4245 30.2466 11.3676 30.0987C10.623 28.208 10.8073 24.9817 10.8706 24.1353C8.06959 21.9099 7.69678 20.4289 7.83619 19.6092C6.59224 19.4313 4.84535 18.6351 4.34518 16.4478C3.86394 16.1843 2.43584 15.3297 1.56881 14.076L1.47323 13.9378C0.774736 12.9322 -0.280153 11.4125 0.0689615 9.08954C0.103648 8.93302 0.805318 5.89929 1.3693 4.83233C1.51595 4.55579 1.21756 3.63427 1.11669 3.32273L1.11498 3.31745C1.10492 3.28679 1.09922 3.25479 1.09764 3.2232L1.09753 3.22037C1.09488 3.14878 1.08186 2.7976 1.13722 2.38856L1.23406 2.01724L1.33091 1.64593C1.34984 1.59986 1.36718 1.55101 1.39022 1.50693C1.40597 1.31085 1.47521 0.894528 1.76819 0.610563C1.92177 0.462541 2.114 0.373196 2.33218 0.346645C2.50137 0.201144 2.77714 0.0628131 3.17418 0.0906918C3.32935 0.0244467 3.60353 -0.0449847 3.96667 0.0378549C4.12104 0.0103744 4.41005 -0.00661815 4.78207 0.112198C4.96305 0.0843195 5.18745 0.112198 5.36896 0.260619C5.57125 0.425104 5.67041 0.69181 5.66644 1.05357C5.7092 1.08517 5.75156 1.12234 5.79088 1.16721C5.9005 1.29133 5.96908 1.45409 6.00456 1.64898L5.9949 2.39201C5.99079 2.42069 5.99079 2.44498 5.98484 2.47565C5.97755 2.51933 5.9618 2.56141 5.9389 2.59978C5.90831 2.65195 5.22147 3.81237 4.36199 4.38348C4.29275 4.99177 4.23145 5.82481 4.28666 6.06975C4.5104 7.05386 4.73851 8.43452 4.30083 9.54649C4.84098 9.74575 5.76798 10.1248 6.20527 10.5165C6.69657 10.9552 7.83738 12.012 8.43274 12.839C10.0578 11.8791 12.7013 11.2772 13.6017 11.0916C13.5735 9.95431 13.3953 9.27168 13.3489 9.11145C12.8225 8.25212 12.6557 7.59657 12.8383 7.1075C12.8927 6.96107 12.9753 6.84677 13.0652 6.76154C12.7145 3.58629 15.2415 2.97521 15.2689 2.9687L15.2704 2.96842C15.3225 2.95895 15.9133 2.85154 16.3733 2.89197C16.7981 2.85268 17.3986 2.9614 17.4229 2.96631C17.4648 2.97521 19.9938 3.58629 19.643 6.76154C19.7335 6.8469 19.8157 6.9612 19.8688 7.1067C20.0509 7.59577 19.8832 8.25145 19.3562 9.11145C19.3086 9.27553 19.1239 9.98485 19.1021 11.1672C19.7414 11.4764 21.8238 12.4043 23.5328 12.3513C24.7202 12.3308 27.0581 12.9608 27.6514 15.5493C28.1511 15.8055 29.6256 16.6364 30.4905 17.8927C31.2168 18.9452 32.2899 20.5022 31.9272 22.9126C31.8965 23.065 31.1951 26.0995 30.63 27.1668C30.4829 27.4441 30.7843 28.3702 30.885 28.6794L30.8857 28.6815Z" fill="var(--fill-0, #A21A01)"/>
</g>
</svg>
