<svg preserveAspectRatio="none" width="100%" height="100%" overflow="visible" style="display: block;" viewBox="0 0 16 16" fill="none" xmlns="http://www.w3.org/2000/svg">
<g id="Group">
<g id="Vector">
</g>
<path id="Vector_2" d="M11.3333 1.33335V2.66668L8.66667 2.66601V4.00001H10.6667V5.33335C12.14 5.33335 13.3333 6.52668 13.3333 8.00001V13.3333C13.3333 14.07 12.7367 14.6667 12 14.6667H4C3.26334 14.6667 2.66667 14.07 2.66667 13.3333V8.00001C2.66667 6.52668 3.86 5.33335 5.33334 5.33335V4.00001H7.33334V2.66601L5 2.66668C4.58 2.66668 4.08667 2.99335 3.53334 3.73335L2.46667 2.93335C3.24667 1.89335 4.08667 1.33335 5 1.33335H11.3333ZM10.6667 6.66668H5.33334C4.59667 6.66668 4 7.26335 4 8.00001V13.3333H12V8.00001C12 7.26335 11.4033 6.66668 10.6667 6.66668ZM8.66667 8.00001V9.33335H10V10.6667H8.666L8.66667 12H7.33334L7.33267 10.6667H6V9.33335H7.33334V8.00001H8.66667Z" fill="var(--fill-0, #FE755D)"/>
</g>
</svg>
