<svg preserveAspectRatio="none" width="100%" height="100%" overflow="visible" style="display: block;" viewBox="0 0 32 14" fill="none" xmlns="http://www.w3.org/2000/svg">
<g id="Group">
<path id="Vector" d="M27.8263 0.695744V12.5221C27.8263 12.905 27.5134 13.2179 27.1305 13.2179C26.7472 13.2179 26.4348 12.905 26.4348 12.5221V7.30432H5.56496V12.5221C5.56496 12.905 5.25309 13.2179 4.86946 13.2179C4.48559 13.2179 4.17372 12.905 4.17372 12.5221V0.695744C4.17372 0.311869 4.48559 0 4.86946 0C5.25309 0 5.56496 0.311869 5.56496 0.695744V5.91308H26.4348V0.695744C26.4348 0.311869 26.7472 0 27.1305 0C27.5134 0 27.8263 0.311869 27.8263 0.695744ZM2.78273 1.15908C2.39885 1.15908 2.08698 1.47094 2.08698 1.85482V11.3631C2.08698 11.7477 2.39885 12.0586 2.78273 12.0586C3.16636 12.0586 3.47822 11.7477 3.47822 11.3631V1.85482C3.47798 1.47094 3.1676 1.15908 2.78273 1.15908ZM29.2175 1.15908C28.8341 1.15908 28.5218 1.47094 28.5218 1.85482V11.3631C28.5218 11.7477 28.8341 12.0586 29.2175 12.0586C29.6004 12.0586 29.913 11.7477 29.913 11.3631V1.85482C29.913 1.47094 29.6004 1.15908 29.2175 1.15908ZM0.695744 3.9418C0.311868 3.9418 0 4.25367 0 4.63755V8.58034C0 8.96472 0.311868 9.27609 0.695744 9.27609C1.07937 9.27609 1.39124 8.96472 1.39124 8.58034V4.63755C1.39124 4.25367 1.08061 3.9418 0.695744 3.9418ZM31.3045 3.9418C30.9219 3.9418 30.6088 4.25367 30.6088 4.63755V8.58034C30.6088 8.96472 30.9219 9.27609 31.3045 9.27609C31.6881 9.27609 32.0003 8.96472 32.0003 8.58034V4.63755C32 4.25367 31.6881 3.9418 31.3045 3.9418Z" fill="var(--fill-0, #A21A01)"/>
</g>
</svg>
