<svg preserveAspectRatio="none" width="100%" height="100%" overflow="visible" style="display: block;" viewBox="0 0 12 14" fill="none" xmlns="http://www.w3.org/2000/svg">
<g id="Shield Done">
<g id="Vector">
<path d="M6.04717 0.0663761L10.4721 1.55101C10.9674 1.71641 11.3023 2.17141 11.305 2.68132L11.3332 7.10842C11.3419 8.45055 10.8527 9.75214 9.95667 10.772C9.54458 11.24 9.01638 11.6421 8.34186 12.0016L5.96328 13.2732C5.88878 13.3124 5.8069 13.3326 5.72435 13.3333C5.64179 13.334 5.55924 13.3143 5.48541 13.2758L3.08468 12.0337C2.40278 11.68 1.86988 11.2838 1.45376 10.8223C0.543 9.81293 0.0369462 8.51723 0.0282211 7.17314L1.61176e-05 2.74931C-0.0026522 2.23874 0.326216 1.78047 0.818846 1.60854L5.22702 0.0709523C5.48877 -0.0218783 5.78072 -0.0238395 6.04717 0.0663761ZM8.1632 4.81244C7.96521 4.6222 7.64641 4.62351 7.4511 4.81636L5.20541 7.02991L4.28592 6.14606C4.08793 5.95582 3.7698 5.95778 3.57382 6.15064C3.37851 6.34349 3.38052 6.65336 3.57852 6.8436L4.85573 8.07262C4.95506 8.16807 5.08393 8.21514 5.21279 8.21385C5.34165 8.21317 5.46984 8.1648 5.56783 8.06804L8.16723 5.5054C8.36254 5.31255 8.36052 5.00267 8.1632 4.81244Z" fill="var(--fill-0, #00BF71)"/>
<path d="M8.1632 4.81244C7.96521 4.6222 7.64641 4.62351 7.4511 4.81636L5.20541 7.02991L4.28592 6.14606C4.08793 5.95582 3.7698 5.95778 3.57382 6.15064C3.37851 6.34349 3.38052 6.65336 3.57852 6.8436L4.85573 8.07262C4.95506 8.16807 5.08393 8.21514 5.21279 8.21385C5.34165 8.21317 5.46984 8.1648 5.56783 8.06804L8.16723 5.5054C8.36254 5.31255 8.36052 5.00267 8.1632 4.81244Z" fill="var(--fill-0, #00BF71)"/>
</g>
</g>
</svg>
