<svg preserveAspectRatio="none" width="100%" height="100%" overflow="visible" style="display: block;" viewBox="0 0 6 6" fill="none" xmlns="http://www.w3.org/2000/svg">
<g id="Plus">
<path id="Vector" d="M2.99333 0C2.68667 0 2.44 0.246667 2.44 0.553333V2.43333H0.553333C0.406667 2.43333 0.266667 2.49333 0.16 2.59333C0.0600002 2.7 0 2.83933 0 2.98667C0 3.29333 0.246667 3.54 0.553333 3.54667H2.44V5.43333C2.44 5.74 2.68667 5.98667 2.99333 5.98667C3.3 5.98667 3.54667 5.74 3.54667 5.43333V3.54667H5.44C5.74667 3.54 5.99333 3.29333 5.99333 2.98667C5.99333 2.68 5.74667 2.43333 5.44 2.43333H3.54667V0.553333C3.54667 0.246667 3.3 0 2.99333 0Z" fill="var(--fill-0, white)"/>
</g>
</svg>
