<svg preserveAspectRatio="none" width="100%" height="100%" overflow="visible" style="display: block;" viewBox="0 0 12 12" fill="none" xmlns="http://www.w3.org/2000/svg">
<path id="Vector" d="M8.4688 0.488461C8.6164 0.335645 8.79295 0.213753 8.98815 0.129899C9.18336 0.0460444 9.39331 0.00190652 9.60576 6.04107e-05C9.8182 -0.0017857 10.0289 0.0386971 10.2255 0.119147C10.4222 0.199596 10.6008 0.318401 10.751 0.468629C10.9013 0.618857 11.0201 0.797501 11.1005 0.994135C11.181 1.19077 11.2214 1.40146 11.2196 1.6139C11.2178 1.82635 11.1736 2.0363 11.0898 2.23151C11.0059 2.42672 10.884 2.60327 10.7312 2.75086L10.0968 3.38526L7.8344 1.12286L8.4688 0.488461V0.488461ZM6.7032 2.25406L0 8.95726V11.2197H2.2624L8.9664 4.51646L6.7024 2.25406H6.7032Z" fill="var(--fill-0, white)"/>
</svg>
