<svg preserveAspectRatio="none" width="100%" height="100%" overflow="visible" style="display: block;" viewBox="0 0 120 120" fill="none" xmlns="http://www.w3.org/2000/svg">
<g id="Ellipse 91">
<mask id="path-1-inside-1_1780_6305" fill="white">
<path d="M58.7351 1.80954C58.7148 0.815636 59.5043 -0.00939648 60.4984 8.08462e-05C71.7399 0.107256 82.7389 3.37144 92.2324 9.43762C102.232 15.8272 110.113 25.0387 114.877 35.907C119.642 46.7754 121.077 58.8125 119 70.4963C116.924 82.1801 111.429 92.9858 103.211 101.547C94.9937 110.108 84.4219 116.04 72.8328 118.593C61.2438 121.145 49.158 120.204 38.1038 115.888C27.0496 111.572 17.5235 104.075 10.7302 94.3453C4.28067 85.1078 0.569239 74.2516 0.00225579 63.0239C-0.0478815 62.0311 0.74416 61.2084 1.73806 61.1881V61.1881C2.73197 61.1678 3.55118 61.9574 3.60322 62.9502C4.15443 73.4659 7.64003 83.6308 13.6819 92.2844C20.0677 101.431 29.0222 108.478 39.4131 112.535C49.8041 116.592 61.1647 117.477 72.0584 115.077C82.9521 112.677 92.8897 107.101 100.614 99.0539C108.339 91.0065 113.504 80.8492 115.456 69.8664C117.408 58.8836 116.059 47.5687 111.58 37.3524C107.101 27.1362 99.6938 18.4775 90.294 12.4712C81.4005 6.78842 71.1015 3.72159 60.572 3.60105C59.578 3.58967 58.7555 2.80344 58.7351 1.80954V1.80954Z"/>
</mask>
<path d="M58.7351 1.80954C58.7148 0.815636 59.5043 -0.00939648 60.4984 8.08462e-05C71.7399 0.107256 82.7389 3.37144 92.2324 9.43762C102.232 15.8272 110.113 25.0387 114.877 35.907C119.642 46.7754 121.077 58.8125 119 70.4963C116.924 82.1801 111.429 92.9858 103.211 101.547C94.9937 110.108 84.4219 116.04 72.8328 118.593C61.2438 121.145 49.158 120.204 38.1038 115.888C27.0496 111.572 17.5235 104.075 10.7302 94.3453C4.28067 85.1078 0.569239 74.2516 0.00225579 63.0239C-0.0478815 62.0311 0.74416 61.2084 1.73806 61.1881V61.1881C2.73197 61.1678 3.55118 61.9574 3.60322 62.9502C4.15443 73.4659 7.64003 83.6308 13.6819 92.2844C20.0677 101.431 29.0222 108.478 39.4131 112.535C49.8041 116.592 61.1647 117.477 72.0584 115.077C82.9521 112.677 92.8897 107.101 100.614 99.0539C108.339 91.0065 113.504 80.8492 115.456 69.8664C117.408 58.8836 116.059 47.5687 111.58 37.3524C107.101 27.1362 99.6938 18.4775 90.294 12.4712C81.4005 6.78842 71.1015 3.72159 60.572 3.60105C59.578 3.58967 58.7555 2.80344 58.7351 1.80954V1.80954Z" stroke="var(--stroke-0, #FE755D)" stroke-width="8" stroke-linejoin="round" mask="url(#path-1-inside-1_1780_6305)"/>
</g>
</svg>
