<svg preserveAspectRatio="none" width="100%" height="100%" overflow="visible" style="display: block;" viewBox="0 0 14 14" fill="none" xmlns="http://www.w3.org/2000/svg">
<g id="Time Circle">
<path id="Vector" d="M6.66667 0C10.3488 0 13.3333 2.98452 13.3333 6.66667C13.3333 10.3488 10.3488 13.3333 6.66667 13.3333C2.98452 13.3333 0 10.3488 0 6.66667C0 2.98452 2.98452 0 6.66667 0ZM6.66667 1C3.53681 1 1 3.53681 1 6.66667C1 9.79652 3.53681 12.3333 6.66667 12.3333C9.79653 12.3333 12.3333 9.79652 12.3333 6.66667C12.3333 3.53681 9.79653 1 6.66667 1ZM6.44107 3.3976C6.6942 3.3976 6.9034 3.5857 6.9365 3.82975L6.94107 3.8976L6.9408 6.84433L9.21056 8.19887C9.42795 8.32855 9.51124 8.59727 9.41464 8.82382L9.3838 8.88442C9.25412 9.10181 8.9854 9.1851 8.75885 9.0885L8.69824 9.05766L6.18491 7.55833C6.05529 7.48101 5.96873 7.35013 5.94664 7.20343L5.94107 7.12893V3.8976C5.94107 3.62146 6.16493 3.3976 6.44107 3.3976Z" fill="var(--fill-0, #9CA3AF)"/>
</g>
</svg>
